<svg width="24" height="24" viewBox="0 0 24 24" fill="none" xmlns="http://www.w3.org/2000/svg">
<path fill-rule="evenodd" clip-rule="evenodd" d="M4.80002 2.39999C4.1635 2.39999 3.55306 2.65285 3.10297 3.10294C2.65288 3.55302 2.40002 4.16347 2.40002 4.79999V18C2.40002 18.9548 2.77931 19.8704 3.45444 20.5456C4.12957 21.2207 5.04524 21.6 6.00002 21.6C6.9548 21.6 7.87048 21.2207 8.54561 20.5456C9.22074 19.8704 9.60002 18.9548 9.60002 18V4.79999C9.60002 4.16347 9.34717 3.55302 8.89708 3.10294C8.44699 2.65285 7.83654 2.39999 7.20002 2.39999H4.80002ZM6.00002 19.2C6.31828 19.2 6.62351 19.0736 6.84855 18.8485C7.0736 18.6235 7.20002 18.3183 7.20002 18C7.20002 17.6817 7.0736 17.3765 6.84855 17.1515C6.62351 16.9264 6.31828 16.8 6.00002 16.8C5.68176 16.8 5.37654 16.9264 5.1515 17.1515C4.92645 17.3765 4.80002 17.6817 4.80002 18C4.80002 18.3183 4.92645 18.6235 5.1515 18.8485C5.37654 19.0736 5.68176 19.2 6.00002 19.2ZM12 17.0916L17.88 11.2116C18.33 10.7615 18.5827 10.1512 18.5827 9.51479C18.5827 8.8784 18.33 8.26806 17.88 7.81799L16.182 6.11999C15.732 5.67006 15.1216 5.41731 14.4852 5.41731C13.8488 5.41731 13.2385 5.67006 12.7884 6.11999L12 6.90839V17.0916ZM19.2 21.6H10.8852L18.0852 14.4H19.2C19.8365 14.4 20.447 14.6529 20.8971 15.1029C21.3472 15.553 21.6 16.1635 21.6 16.8V19.2C21.6 19.8365 21.3472 20.447 20.8971 20.897C20.447 21.3471 19.8365 21.6 19.2 21.6Z" fill="white"/>
</svg>
